<svg width="105" height="172" viewBox="0 0 105 172" fill="none" xmlns="http://www.w3.org/2000/svg">
<g clip-path="url(#clip0_332_196)">
<g opacity="0.3">
<path d="M16.2384 89.7018C14.3142 91.9004 13.6371 94.93 14.9042 97.705C15.4137 98.5496 15.9233 99.3874 16.4329 100.232C19.8924 100.265 23.3452 100.299 26.8047 100.332C31.6186 98.0871 33.2209 90.3721 32.765 85.727C31.4912 72.7971 16.8351 65.8597 5.63848 72.2274C-13.208 82.952 -9.11101 109.931 9.90929 117.438C19.8454 121.359 32.3158 122.157 41.4272 115.809C49.5933 110.119 53.8038 100.279 54.5614 90.6067C55.2721 81.4908 53.2205 70.8801 48.7553 62.8232C41.5546 49.813 26.1812 49.7996 13.456 52.9634C10.2043 53.7744 7.78398 50.0878 11.7933 49.0891C23.8882 46.0862 37.5721 45.55 47.9574 53.5868C57.6521 61.094 61.038 76.2692 60.924 87.9724C60.6826 113.798 38.6515 128.726 14.2739 123.162C4.16399 120.856 -5.76602 115.883 -10.358 106.083C-14.951 96.2907 -13.436 84.0982 -6.47002 75.8201C6.53698 60.3566 38.1353 63.0579 39.1142 86.7994C39.55 97.3028 31.1224 106.908 20.2946 106.325C10.9485 105.822 3.96198 95.5132 10.8145 87.691C12.4839 85.794 18.4308 87.2016 16.2384 89.7018Z" fill="#99DDB4"/>
<path d="M56.3865 148.104C58.4984 154.854 60.617 161.604 62.7289 168.354C63.7212 171.524 57.5731 172.409 56.6881 169.587C54.5762 162.837 52.4576 156.087 50.3457 149.338C49.3601 146.167 55.5082 145.282 56.3865 148.104Z" fill="#99DDB4"/>
<path d="M19.5373 151.341C18.7998 157.776 17.2309 163.969 14.7369 169.955C13.6641 172.542 7.48261 171.705 8.69611 168.789C11.036 163.172 12.578 157.394 13.2685 151.341C13.6105 148.392 19.8658 148.479 19.5373 151.341Z" fill="#99DDB4"/>
<path d="M79.3221 110.695C86.9317 113.979 94.8162 116.48 102.922 118.195C106.998 119.06 104.337 122.197 101.259 121.547C92.168 119.623 83.4253 116.835 74.8971 113.155C73.5227 112.565 74.0323 111.392 74.8971 110.695C76.0369 109.77 78.122 110.179 79.3221 110.695Z" fill="#99DDB4"/>
<path d="M100.857 58.5805C93.5562 59.0095 86.2549 59.4385 78.9604 59.8675C75.0718 60.0954 75.1187 55.6781 78.9604 55.4502C86.2616 55.0212 93.5629 54.5923 100.857 54.1633C104.753 53.9354 104.699 58.3526 100.857 58.5805Z" fill="#99DDB4"/>
<path d="M67.9378 9.42115C64.7799 14.5957 61.6154 19.7703 58.4576 24.9516C57.0831 27.2038 50.9217 26.3056 52.4168 23.8524C55.5746 18.6778 58.7392 13.5031 61.897 8.32187C63.2781 6.0697 69.4396 6.9679 67.9378 9.42115Z" fill="#99DDB4"/>
<path d="M13.7792 22.0563C12.7869 15.7824 11.4058 9.60906 9.66927 3.50275C8.77757 0.379211 14.9256 -0.418443 15.7101 2.31633C17.5605 8.8114 18.9953 15.3869 20.0479 22.0563C20.4904 24.9117 14.2485 25.0391 13.7792 22.0563Z" fill="#99DDB4"/>
</g>
</g>
<defs>
<clipPath id="clip0_332_196">
<rect width="110" height="172" fill="white" transform="matrix(-1 0 0 1 105 0)"/>
</clipPath>
</defs>
</svg>
