<svg width="99" height="152" viewBox="0 0 99 152" fill="none" xmlns="http://www.w3.org/2000/svg">
<g clip-path="url(#clip0_358_336)">
<g opacity="0.3">
<path d="M79.3358 79.2711C81.0363 81.214 81.6346 83.8914 80.5149 86.3437C80.0646 87.0901 79.6143 87.8304 79.1639 88.577C76.1067 88.6062 73.0554 88.6362 69.9981 88.6654C65.744 86.6813 64.328 79.8634 64.7309 75.7585C65.8566 64.332 78.8085 58.2013 88.7032 63.8286C105.358 73.3061 101.738 97.1482 84.929 103.782C76.1482 107.247 65.1279 107.953 57.0759 102.343C49.8594 97.3144 46.1385 88.6185 45.469 80.0708C44.8409 72.0148 46.6539 62.6379 50.5999 55.5179C56.9633 44.0205 70.5491 44.0087 81.7947 46.8046C84.6683 47.5213 86.8071 44.2634 83.264 43.3808C72.5755 40.7271 60.4828 40.2532 51.3051 47.3555C42.7376 53.9898 39.7455 67.4004 39.8462 77.7428C40.0595 100.566 59.5289 113.758 81.0719 108.841C90.0062 106.803 98.7816 102.408 102.84 93.7477C106.899 85.0938 105.56 74.3191 99.4037 67.0035C87.9091 53.3381 59.9851 55.7253 59.12 76.7062C58.7349 85.9882 66.1825 94.4767 75.7513 93.9615C84.0106 93.517 90.1847 84.4067 84.129 77.4941C82.6537 75.8177 77.3983 77.0616 79.3358 79.2711Z" fill="#99DDB4"/>
<path d="M43.8566 130.883C41.9903 136.848 40.118 142.813 38.2517 148.778C37.3748 151.579 42.808 152.361 43.5901 149.868C45.4564 143.903 47.3287 137.937 49.195 131.973C50.066 129.171 44.6328 128.389 43.8566 130.883Z" fill="#99DDB4"/>
<path d="M76.4202 133.743C77.072 139.43 78.4584 144.903 80.6624 150.193C81.6105 152.479 87.0732 151.739 86.0008 149.162C83.933 144.199 82.5703 139.092 81.9601 133.743C81.6579 131.137 76.1299 131.214 76.4202 133.743Z" fill="#99DDB4"/>
<path d="M23.5876 97.8235C16.8628 100.726 9.89515 102.936 2.73189 104.451C-0.870457 105.216 1.48172 107.988 4.20126 107.414C12.2354 105.713 19.9615 103.25 27.4981 99.9974C28.7127 99.476 28.2623 98.4394 27.4981 97.8235C26.4908 97.006 24.6482 97.3675 23.5876 97.8235Z" fill="#99DDB4"/>
<path d="M4.55622 51.7688C11.0084 52.1479 17.4607 52.527 23.907 52.9061C27.3435 53.1075 27.302 49.2039 23.907 49.0025C17.4548 48.6233 11.0025 48.2443 4.55622 47.8652C1.11385 47.6638 1.16125 51.5674 4.55622 51.7688Z" fill="#99DDB4"/>
<path d="M33.6483 8.32565C36.439 12.8985 39.2355 17.4714 42.0261 22.0503C43.2408 24.0406 48.6858 23.2468 47.3645 21.0789C44.5739 16.506 41.7773 11.933 38.9867 7.35419C37.7662 5.3639 32.3211 6.15766 33.6483 8.32565Z" fill="#99DDB4"/>
<path d="M81.5088 19.4916C82.3858 13.9472 83.6063 8.49167 85.1408 3.0954C85.9289 0.33506 80.4957 -0.369843 79.8025 2.04693C78.1672 7.78676 76.8993 13.5977 75.9691 19.4916C75.578 22.0149 81.0941 22.1275 81.5088 19.4916Z" fill="#99DDB4"/>
</g>
</g>
<defs>
<clipPath id="clip0_358_336">
<rect width="97.2093" height="152" fill="white" transform="translate(0.895508)"/>
</clipPath>
</defs>
</svg>
