<svg width="22" height="14" viewBox="0 0 22 14" fill="none" xmlns="http://www.w3.org/2000/svg">
<path d="M10.6927 2.1355C10.4751 1.84818 10.0385 1.26433 9.83041 0.975586C6.49769 1.55211 3.13234 2.8772 0.72239 5.27288C-0.204176 6.3253 0.85865 7.53036 1.94699 7.87499C4.64921 9.03117 6.93525 10.8335 9.23471 12.5963C10.1954 13.6379 12.3488 12.6269 11.6494 11.1977C10.667 9.75459 8.86666 9.0558 7.56033 7.90619C10.8925 7.5839 14.2302 7.29844 17.5813 7.35925C19.0031 7.40899 20.402 7.11386 21.6316 6.40179C21.5765 6.09946 21.4728 5.47496 21.4176 5.17262C16.2706 4.5065 11.0645 4.79999 5.93163 5.51547C5.68878 5.76849 5.19362 6.27596 4.95216 6.53819C4.78492 6.32801 4.45045 5.90766 4.28321 5.69748C6.35156 4.37921 8.68276 3.52029 10.6927 2.1355Z" fill="#042622"/>
</svg>
