<svg width="22" height="14" viewBox="0 0 22 14" fill="none" xmlns="http://www.w3.org/2000/svg">
<path d="M11.3072 2.1355C11.5248 1.84818 11.9614 1.26433 12.1695 0.975586C15.5022 1.55211 18.8675 2.8772 21.2775 5.27288C22.2041 6.3253 21.1412 7.53036 20.0529 7.87499C17.3507 9.03117 15.0646 10.8335 12.7652 12.5963C11.8045 13.6379 9.65107 12.6269 10.3505 11.1977C11.3329 9.75459 13.1332 9.0558 14.4395 7.90619C11.1074 7.5839 7.76967 7.29844 4.41857 7.35925C2.99677 7.40899 1.59787 7.11386 0.368269 6.40179C0.423368 6.09946 0.527067 5.47496 0.582268 5.17262C5.72927 4.5065 10.9354 4.79999 16.0682 5.51547C16.3111 5.76849 16.8063 6.27596 17.0477 6.53819C17.215 6.32801 17.5494 5.90766 17.7167 5.69748C15.6483 4.37921 13.3171 3.52029 11.3072 2.1355Z" fill="#042622"/>
</svg>
