<svg width="40" height="40" viewBox="0 0 40 40" fill="none" xmlns="http://www.w3.org/2000/svg">
<rect x="0.6" y="0.6" width="38.8" height="38.8" rx="19.4" stroke="#036C5F" stroke-width="1.2"/>
<path d="M20.0021 15.385C17.4476 15.385 15.3871 17.4455 15.3871 20C15.3871 22.5545 17.4476 24.615 20.0021 24.615C22.5566 24.615 24.617 22.5545 24.617 20C24.617 17.4455 22.5566 15.385 20.0021 15.385ZM20.0021 23.0003C18.3513 23.0003 17.0017 21.6548 17.0017 20C17.0017 18.3452 18.3473 16.9997 20.0021 16.9997C21.6569 16.9997 23.0024 18.3452 23.0024 20C23.0024 21.6548 21.6528 23.0003 20.0021 23.0003ZM25.8822 15.1963C25.8822 15.7947 25.4003 16.2727 24.8058 16.2727C24.2074 16.2727 23.7294 15.7907 23.7294 15.1963C23.7294 14.6018 24.2114 14.1198 24.8058 14.1198C25.4003 14.1198 25.8822 14.6018 25.8822 15.1963ZM28.9388 16.2887C28.8705 14.8468 28.5412 13.5696 27.4848 12.5172C26.4325 11.4649 25.1552 11.1356 23.7133 11.0633C22.2272 10.9789 17.7729 10.9789 16.2868 11.0633C14.8489 11.1315 13.5716 11.4609 12.5153 12.5132C11.4589 13.5655 11.1336 14.8428 11.0613 16.2847C10.977 17.7708 10.977 22.2251 11.0613 23.7113C11.1296 25.1532 11.4589 26.4304 12.5153 27.4828C13.5716 28.5351 14.8449 28.8644 16.2868 28.9367C17.7729 29.0211 22.2272 29.0211 23.7133 28.9367C25.1552 28.8685 26.4325 28.5391 27.4848 27.4828C28.5372 26.4304 28.8665 25.1532 28.9388 23.7113C29.0232 22.2251 29.0232 17.7749 28.9388 16.2887ZM27.0189 25.3058C26.7056 26.093 26.0991 26.6995 25.3079 27.0168C24.123 27.4868 21.3114 27.3783 20.0021 27.3783C18.6927 27.3783 15.8771 27.4828 14.6963 27.0168C13.909 26.7036 13.3025 26.0971 12.9852 25.3058C12.5153 24.1209 12.6237 21.3094 12.6237 20C12.6237 18.6906 12.5193 15.875 12.9852 14.6942C13.2985 13.907 13.905 13.3005 14.6963 12.9832C15.8811 12.5132 18.6927 12.6217 20.0021 12.6217C21.3114 12.6217 24.127 12.5172 25.3079 12.9832C26.0951 13.2964 26.7016 13.9029 27.0189 14.6942C27.4888 15.8791 27.3804 18.6906 27.3804 20C27.3804 21.3094 27.4888 24.125 27.0189 25.3058Z" fill="#036C5F"/>
</svg>
