<svg width="40" height="40" viewBox="0 0 40 40" fill="none" xmlns="http://www.w3.org/2000/svg">
<rect x="0.6" y="0.6" width="38.8" height="38.8" rx="19.4" stroke="#036C5F" stroke-width="1.2"/>
<path d="M15.029 29H11.2971V16.9823H15.029V29ZM13.161 15.343C11.9677 15.343 10.9998 14.3546 10.9998 13.1613C10.9998 12.5881 11.2275 12.0383 11.6328 11.633C12.0381 11.2277 12.5878 11 13.161 11C13.7342 11 14.2839 11.2277 14.6892 11.633C15.0946 12.0383 15.3223 12.5881 15.3223 13.1613C15.3223 14.3546 14.3539 15.343 13.161 15.343ZM28.9961 29H25.2723V23.1499C25.2723 21.7556 25.2442 19.9677 23.332 19.9677C21.3918 19.9677 21.0944 21.4824 21.0944 23.0494V29H17.3666V16.9823H20.9458V18.6216H20.998C21.4962 17.6774 22.7133 16.681 24.529 16.681C28.3059 16.681 29.0002 19.1681 29.0002 22.3985V29H28.9961Z" fill="#036C5F"/>
</svg>
