<svg width="149" height="140" viewBox="0 0 149 140" fill="none" xmlns="http://www.w3.org/2000/svg">
<mask id="mask0_197_950" style="mask-type:luminance" maskUnits="userSpaceOnUse" x="-1" y="0" width="149" height="140">
<path d="M147.618 71.409L49.2473 0L-0.000269221 67.842L98.3706 139.251L147.618 71.409Z" fill="white"/>
</mask>
<g mask="url(#mask0_197_950)">
<path d="M34.1182 20.8664C35.8178 18.304 38.189 16.3614 40.8409 15.0733C45.6845 12.7195 52.1569 12.8299 56.5315 17.8395C59.083 20.7621 61.5204 23.811 62.921 27.5493C63.6001 29.3624 64.5548 31.0812 65.4886 32.7867C67.8167 37.0359 69.1953 41.6721 70.4585 46.2714C71.5861 50.3803 72.8969 54.4718 73.6769 58.6593C74.1948 61.436 74.1027 64.3365 74.167 67.1841C74.1983 68.5432 73.4279 69.2574 72.0339 69.5515C71.9074 69.5774 71.778 69.6074 71.6501 69.61C66.3275 69.6987 61.6053 72.0531 56.6533 73.5542C53.9281 74.3808 51.176 75.1351 48.4018 75.78C46.5802 76.2043 45.4566 75.4963 44.7643 73.6959C43.275 69.8222 41.8692 65.9175 40.359 62.053C39.1806 59.0386 37.9896 56.0556 37.1457 52.9022C36.5203 50.5674 35.1518 48.4082 33.962 46.2548C33.1259 44.742 32.63 43.2224 32.4869 41.4855C32.2405 38.5139 31.9801 35.5139 31.3431 32.6102C30.3722 28.1764 31.6987 24.4233 34.1182 20.8664ZM49.0732 70.3631C51.2661 70.7343 52.9244 70.4595 54.525 69.8808C58.1868 68.5561 61.8359 67.1957 65.4734 65.8066C66.0661 65.5808 66.5464 65.0785 67.124 64.795C69.3603 63.6988 69.962 61.7755 69.5279 59.5635C68.7819 55.7519 68.1554 51.8708 66.9198 48.2075C64.5212 41.0942 62.4065 33.8194 58.0192 27.5454C57.7235 27.1214 57.4416 26.6589 57.2876 26.1714C56.2228 22.8129 53.5856 20.9432 50.7911 19.2091C48.8962 18.0326 46.9011 17.9513 44.7873 18.5149C42.6827 19.0771 41.2287 20.5482 39.597 21.8416C36.4297 24.352 35.2252 27.6961 35.5902 31.4951C36.0859 36.6563 36.8019 41.7661 39.1343 46.583C41.5065 51.4796 43.86 56.4073 45.578 61.6089C46.5491 64.5561 47.8683 67.3823 49.0732 70.3631Z" fill="white" fill-opacity="0.4"/>
<path d="M79.5597 71.6816C84.0956 69.1048 88.8397 66.8917 94.1018 65.5591C98.3982 64.4715 102.706 63.7622 107.061 63.1292C113.766 62.1537 120.528 61.6719 127.273 61.8756C131.935 62.0165 136.541 63.2784 140.402 66.1722C142.398 67.668 143.841 69.713 144.574 72.1579C145.147 74.0713 144.589 75.8029 143.351 77.2457C139.946 81.2203 136.243 84.9137 131.257 86.8335C128.485 87.9006 125.541 88.547 122.643 89.257C116.713 90.7082 110.787 92.1845 104.813 93.4361C100.379 94.3641 96.0199 95.666 91.4452 95.9871C89.3133 96.1372 87.8706 95.474 86.8646 93.7806C85.5375 91.5507 84.2758 89.2755 83.1198 86.9517C81.9053 84.5105 80.9046 81.962 79.7107 79.5092C77.9741 75.9372 77.9358 75.9561 79.5597 71.6816ZM137.262 76.4555C139.338 73.5039 138.89 70.5525 136.441 68.7954C135.71 68.271 134.895 67.8318 134.064 67.4918C131.143 66.3002 128.126 65.7349 124.938 65.937C118.593 66.3396 112.257 66.7504 105.952 67.6539C100.668 68.4121 95.5102 69.6622 90.4115 71.1771C88.6862 71.6897 87.0088 72.4726 85.4336 73.352C83.7108 74.3151 83.4263 75.4571 84.2046 77.2933C84.8593 78.8395 85.7714 80.2933 86.2777 81.8818C87.168 84.6664 88.7768 86.9843 90.5054 89.2688C91.5592 90.6612 92.8276 91.0804 94.5763 90.8364C99.084 90.2111 103.493 89.1766 107.888 88.039C112.783 86.7706 117.661 85.4133 122.608 84.3839C126.498 83.5735 130.061 82.1362 133.286 79.9016C134.869 78.8029 136.223 77.3688 137.262 76.4555Z" fill="white" fill-opacity="0.4"/>
<path d="M57.6837 102.682C58.7577 103.433 59.0757 104.997 58.3923 106.17C57.6307 107.48 55.0767 107.925 53.8858 106.957C52.8448 106.11 52.6882 104.562 53.5323 103.452C54.5617 102.102 56.3726 101.765 57.6837 102.682Z" fill="white" fill-opacity="0.4"/>
<path d="M50.0876 86.0194C51.249 86.8318 51.5294 88.2401 50.773 89.4498C49.9198 90.813 48.021 91.1223 46.6733 90.1155C45.7949 89.4616 45.7889 87.8461 46.6577 86.5601C47.4238 85.4259 48.9062 85.192 50.0876 86.0194Z" fill="white" fill-opacity="0.4"/>
<path d="M71.1044 100.671C69.6634 99.6473 69.2472 98.3621 69.8159 97.4299C70.4524 96.3854 71.6081 95.9553 72.8482 96.3292C73.2166 96.4398 73.5832 96.5983 73.9086 96.802C74.7319 97.3167 75.2412 98.0176 75.098 99.0571C74.9545 100.108 74.1339 100.959 72.9906 100.986C72.253 101.003 71.508 100.745 71.1044 100.671Z" fill="white" fill-opacity="0.4"/>
<path d="M61.6472 93.3565C62.6774 94.1068 62.7996 95.682 61.916 96.8096C61.0695 97.8893 59.6393 98.0738 58.4666 97.2572C57.2859 96.434 56.9891 94.9007 57.8139 93.8847C58.7171 92.7697 60.5012 92.5232 61.6472 93.3565Z" fill="white" fill-opacity="0.4"/>
<path d="M70.9154 85.7193C72.0918 84.3084 73.866 84.0226 74.9171 85.0738C75.7584 85.9164 75.6518 87.5184 74.6851 88.5453C73.6145 89.6813 72.0881 89.7718 70.9151 88.7675C69.9844 87.9702 69.9843 86.8368 70.9154 85.7193Z" fill="white" fill-opacity="0.4"/>
<path d="M72.3934 79.4905C71.63 80.5897 70.2144 80.7319 69.0081 79.8298C67.8966 78.9987 67.545 77.675 68.2155 76.8436C69.2634 75.5428 71.1814 75.1539 72.3191 76.0102C73.2377 76.7014 73.271 78.2285 72.3934 79.4905Z" fill="white" fill-opacity="0.4"/>
<path d="M61.0627 84.2842C60.3099 85.3019 58.6286 85.5358 57.5817 84.7695C56.705 84.1274 56.4086 82.4475 57.0243 81.619C57.7073 80.7032 59.5893 80.2881 60.552 80.8428C61.6017 81.4484 61.8622 83.2054 61.0627 84.2842Z" fill="white" fill-opacity="0.4"/>
<path d="M68.2152 110.571C67.5386 111.542 66.1023 111.917 65.1846 111.364C64.0834 110.701 63.7492 109.029 64.5197 108.026C65.3224 106.982 66.7974 106.761 67.9362 107.512C68.8424 108.112 68.9677 109.492 68.2152 110.571Z" fill="white" fill-opacity="0.4"/>
</g>
</svg>
