<svg width="138" height="130" viewBox="0 0 138 130" fill="none" xmlns="http://www.w3.org/2000/svg">
<mask id="mask0_266_519" style="mask-type:luminance" maskUnits="userSpaceOnUse" x="-1" y="0" width="139" height="130">
<path d="M137.074 66.3084L45.7297 0L-0.000163759 62.9961L91.3442 129.304L137.074 66.3084Z" fill="white"/>
</mask>
<g mask="url(#mask0_266_519)">
<path d="M31.6813 19.376C33.2595 16.9967 35.4613 15.1928 37.9238 13.9967C42.4214 11.8111 48.4315 11.9135 52.4936 16.5653C54.8629 19.2792 57.1262 22.1103 58.4268 25.5816C59.0573 27.2651 59.9439 28.8612 60.811 30.4449C62.9728 34.3905 64.2529 38.6956 65.4259 42.9664C66.4729 46.7818 67.6901 50.581 68.4143 54.4694C68.8953 57.0478 68.8098 59.7411 68.8695 62.3853C68.8985 63.6473 68.1831 64.3105 66.8887 64.5836C66.7713 64.6077 66.6511 64.6355 66.5324 64.6379C61.59 64.7203 57.2051 66.9066 52.6067 68.3004C50.0762 69.068 47.5207 69.7684 44.9447 70.3672C43.2531 70.7612 42.2098 70.1038 41.5669 68.432C40.184 64.835 38.8786 61.2092 37.4764 57.6207C36.3821 54.8216 35.2762 52.0517 34.4926 49.1236C33.9118 46.9555 32.6411 44.9506 31.5362 42.951C30.7599 41.5462 30.2994 40.1351 30.1665 38.5223C29.9377 35.763 29.6959 32.9773 29.1044 30.281C28.2028 26.1639 29.4347 22.6788 31.6813 19.376ZM45.568 65.3372C47.6044 65.6819 49.1442 65.4267 50.6304 64.8894C54.0307 63.6593 57.4191 62.3961 60.7968 61.1062C61.3472 60.8965 61.7932 60.4301 62.3296 60.1669C64.4061 59.149 64.9648 57.3631 64.5617 55.309C63.869 51.7696 63.2873 48.1658 62.1399 44.7642C59.9126 38.159 57.949 31.4038 53.8751 25.5779C53.6005 25.1843 53.3388 24.7548 53.1957 24.3021C52.207 21.1835 49.7582 19.4473 47.1632 17.8371C45.4037 16.7446 43.5511 16.6691 41.5883 17.1925C39.634 17.7145 38.2839 19.0806 36.7688 20.2816C33.8276 22.6126 32.7093 25.7179 33.0482 29.2455C33.5085 34.038 34.1733 38.7829 36.3391 43.2557C38.5418 47.8026 40.7273 52.3782 42.3226 57.2083C43.2243 59.945 44.4493 62.5693 45.568 65.3372Z" fill="#99DDB4" fill-opacity="0.2"/>
<path d="M73.8769 66.5616C78.0888 64.1688 82.494 62.1138 87.3803 60.8764C91.3698 59.8665 95.3702 59.2078 99.4134 58.62C105.64 57.7142 111.919 57.2669 118.182 57.456C122.511 57.5868 126.788 58.7586 130.373 61.4457C132.226 62.8347 133.567 64.7336 134.247 67.0039C134.78 68.7806 134.261 70.3885 133.111 71.7282C129.949 75.4189 126.511 78.8485 121.882 80.6311C119.307 81.6221 116.573 82.2223 113.882 82.8816C108.376 84.2291 102.874 85.5999 97.3264 86.7622C93.2092 87.6239 89.1613 88.8328 84.9134 89.131C82.9338 89.2703 81.5941 88.6546 80.66 87.0821C79.4277 85.0114 78.2561 82.8987 77.1827 80.7409C76.0549 78.4741 75.1257 76.1077 74.0171 73.83C72.4045 70.5132 72.369 70.5308 73.8769 66.5616ZM127.458 70.9945C129.385 68.2537 128.969 65.5132 126.696 63.8815C126.017 63.3946 125.26 62.9868 124.488 62.6711C121.776 61.5646 118.974 61.0396 116.014 61.2273C110.122 61.6012 104.238 61.9826 98.3843 62.8215C93.477 63.5256 88.688 64.6864 83.9535 66.0931C82.3515 66.5691 80.7938 67.296 79.3312 68.1127C77.7315 69.007 77.4672 70.0674 78.19 71.7725C78.7979 73.2082 79.6449 74.5581 80.115 76.0332C80.9418 78.6189 82.4356 80.7713 84.0407 82.8925C85.0192 84.1855 86.197 84.5747 87.8209 84.3482C92.0065 83.7675 96.1004 82.8069 100.182 81.7505C104.727 80.5728 109.257 79.3125 113.85 78.3565C117.462 77.6041 120.771 76.2694 123.765 74.1944C125.236 73.1742 126.493 71.8425 127.458 70.9945Z" fill="#99DDB4" fill-opacity="0.2"/>
<path d="M53.5635 95.3476C54.5607 96.0451 54.856 97.4969 54.2215 98.5867C53.5143 99.8026 51.1427 100.216 50.0369 99.3169C49.0702 98.5306 48.9248 97.0936 49.7086 96.063C50.6645 94.8089 52.346 94.496 53.5635 95.3476Z" fill="#99DDB4" fill-opacity="0.2"/>
<path d="M46.51 79.8753C47.5884 80.6296 47.8488 81.9374 47.1465 83.0607C46.3542 84.3264 44.591 84.6137 43.3396 83.6787C42.5239 83.0716 42.5183 81.5715 43.3251 80.3774C44.0365 79.3241 45.4129 79.1069 46.51 79.8753Z" fill="#99DDB4" fill-opacity="0.2"/>
<path d="M66.0256 93.4801C64.6875 92.5296 64.301 91.3363 64.8291 90.4706C65.4202 89.5007 66.4934 89.1014 67.6448 89.4485C67.987 89.5513 68.3273 89.6984 68.6295 89.8876C69.394 90.3655 69.8669 91.0163 69.7339 91.9816C69.6007 92.9578 68.8387 93.7479 67.7771 93.7728C67.0921 93.7884 66.4004 93.5486 66.0256 93.4801Z" fill="#99DDB4" fill-opacity="0.2"/>
<path d="M57.244 86.6882C58.2007 87.3849 58.3142 88.8476 57.4937 89.8946C56.7076 90.8973 55.3796 91.0685 54.2906 90.3103C53.1943 89.5459 52.9187 88.1221 53.6846 87.1786C54.5232 86.1433 56.1799 85.9144 57.244 86.6882Z" fill="#99DDB4" fill-opacity="0.2"/>
<path d="M65.8501 79.5966C66.9425 78.2864 68.5899 78.021 69.566 78.9972C70.3472 79.7795 70.2482 81.2671 69.3506 82.2207C68.3564 83.2755 66.9391 83.3596 65.8498 82.427C64.9856 81.6867 64.9855 80.6342 65.8501 79.5966Z" fill="#99DDB4" fill-opacity="0.2"/>
<path d="M67.2226 73.8126C66.5137 74.8333 65.1992 74.9653 64.0791 74.1276C63.047 73.3559 62.7205 72.1268 63.3431 71.3547C64.3162 70.1468 66.0971 69.7857 67.1536 70.5809C68.0066 71.2227 68.0375 72.6407 67.2226 73.8126Z" fill="#99DDB4" fill-opacity="0.2"/>
<path d="M56.7012 78.2639C56.0021 79.2089 54.4409 79.4261 53.4688 78.7146C52.6548 78.1183 52.3795 76.5584 52.9512 75.789C53.5855 74.9387 55.333 74.5533 56.227 75.0683C57.2017 75.6306 57.4436 77.2622 56.7012 78.2639Z" fill="#99DDB4" fill-opacity="0.2"/>
<path d="M63.3428 102.673C62.7145 103.575 61.3807 103.923 60.5286 103.41C59.5061 102.794 59.1958 101.241 59.9112 100.31C60.6566 99.3402 62.0262 99.1355 63.0836 99.833C63.9251 100.39 64.0415 101.672 63.3428 102.673Z" fill="#99DDB4" fill-opacity="0.2"/>
</g>
</svg>
