<svg width="50" height="48" viewBox="0 0 50 48" fill="none" xmlns="http://www.w3.org/2000/svg">
<rect x="0.851238" width="48.595" height="48" fill="#75BC28"/>
<path d="M16.9346 6.78987L18.8419 6.17066C20.627 5.59105 22.5361 6.52886 23.3012 8.36129L24.8242 12.0117C25.4883 13.6011 25.1199 15.4714 23.9139 16.6342L20.5615 19.8706C20.7687 21.8074 21.408 23.7137 22.4812 25.5893C23.501 27.404 24.8686 28.9924 26.503 30.2603L30.5337 28.8923C32.0602 28.3757 33.7231 28.9715 34.66 30.3701L36.8418 33.6282C37.9326 35.2554 37.7361 37.4982 36.3848 38.877L34.9362 40.3549C33.4947 41.8255 31.4368 42.3601 29.5313 41.7553C25.0349 40.3297 20.9015 36.0978 17.1294 29.0597C13.352 22.0108 12.0203 16.0276 13.1307 11.1171C13.5982 9.05069 15.0468 7.40367 16.9382 6.78987" fill="white"/>
</svg>
