<svg width="130" height="22" viewBox="0 0 130 22" fill="none" xmlns="http://www.w3.org/2000/svg">
<path d="M10.1343 19.1058C10.6281 18.775 11.2644 18.7445 11.7865 19.0268L15.3227 20.9369C16.5673 21.6095 18.0087 20.4529 17.6222 19.0915L16.5223 15.2261C16.3608 14.6547 16.5277 14.0404 16.9576 13.6305L19.8703 10.8529C20.8948 9.87609 20.2395 8.14816 18.8254 8.09604L14.8117 7.94821C14.219 7.92635 13.6868 7.57805 13.4289 7.04335L11.6871 3.42547C11.0746 2.15248 9.23271 2.24056 8.74448 3.5662L7.35586 7.33377C7.15122 7.89058 6.65464 8.28809 6.06572 8.36646L2.0855 8.89658C0.681819 9.08345 0.19441 10.866 1.30746 11.7406L4.47187 14.2276C4.93893 14.5946 5.16464 15.1901 5.05742 15.7743L4.3324 19.7271C4.07661 21.1192 5.6218 22.1329 6.79748 21.3446L10.1343 19.1058Z" fill="#FFAF3B"/>
<path d="M37.387 18.6301C37.8808 18.2993 38.5171 18.2688 39.0392 18.5511L42.5754 20.4612C43.82 21.1338 45.2614 19.9772 44.8749 18.6158L43.775 14.7504C43.6135 14.179 43.7804 13.5647 44.2103 13.1548L47.1229 10.3772C48.1474 9.40038 47.4921 7.67245 46.078 7.62033L42.0644 7.4725C41.4717 7.45064 40.9394 7.10234 40.6816 6.56764L38.9398 2.94977C38.3273 1.67677 36.4854 1.76485 35.9972 3.09049L34.6085 6.85806C34.4039 7.41487 33.9073 7.81239 33.3184 7.89076L29.3382 8.42087C27.9345 8.60774 27.4471 10.3903 28.5601 11.2649L31.7246 13.7519C32.1916 14.1189 32.4173 14.7144 32.3101 15.2986L31.5851 19.2514C31.3293 20.6435 32.8745 21.6572 34.0502 20.8689L37.387 18.6301Z" fill="#FFAF3B"/>
<path d="M64.6397 18.1544C65.1335 17.8235 65.7698 17.7931 66.2918 18.0754L69.8281 19.9855C71.0727 20.6581 72.5141 19.5015 72.1276 18.1401L71.0277 14.2746C70.8662 13.7033 71.0331 13.089 71.463 12.6791L74.3756 9.90147C75.4001 8.92468 74.7448 7.19674 73.3307 7.14462L69.3171 6.9968C68.7244 6.97493 68.1921 6.62663 67.9343 6.09194L66.1925 2.47406C65.58 1.20106 63.7381 1.28914 63.2498 2.61478L61.8612 6.38235C61.6566 6.93916 61.16 7.33668 60.5711 7.41505L56.5909 7.94516C55.1872 8.13203 54.6998 9.91461 55.8128 10.7892L58.9772 13.2762C59.4443 13.6432 59.67 14.2387 59.5628 14.8229L58.8378 18.7757C58.582 20.1678 60.1272 21.1815 61.3029 20.3932L64.6397 18.1544Z" fill="#FFAF3B"/>
<path d="M91.8924 17.6787C92.3862 17.3478 93.0224 17.3174 93.5445 17.5997L97.0808 19.5098C98.3253 20.1824 99.7667 19.0258 99.3803 17.6644L98.2804 13.7989C98.1189 13.2276 98.2857 12.6133 98.7157 12.2034L101.628 9.42576C102.653 8.44897 101.998 6.72104 100.583 6.66892L96.5698 6.52109C95.9771 6.49923 95.4448 6.15092 95.187 5.61623L93.4452 1.99835C92.8327 0.725352 90.9908 0.813434 90.5025 2.13907L89.1139 5.90665C88.9093 6.46346 88.4127 6.86097 87.8238 6.93934L83.8436 7.46945C82.4399 7.65633 81.9525 9.4389 83.0655 10.3135L86.2299 12.8005C86.697 13.1675 86.9227 13.763 86.8155 14.3472L86.0905 18.3C85.8347 19.6921 87.3799 20.7058 88.5555 19.9175L91.8924 17.6787Z" fill="#FFAF3B"/>
<path d="M128.378 6.51254L122.95 5.98564L120.307 1.22465C120.069 0.799279 119.636 0.599237 119.214 0.619456C118.794 0.639552 118.385 0.876943 118.189 1.32602L116.012 6.31729L110.658 7.3595C109.698 7.54573 109.367 8.75361 110.101 9.40147L114.183 13.0086L113.516 18.4112C113.422 19.1829 114.062 19.7676 114.746 19.7349C114.928 19.7262 115.113 19.6742 115.287 19.5705L119.99 16.81L124.934 19.1096C125.117 19.195 125.306 19.2288 125.486 19.2201C126.171 19.1874 126.754 18.5463 126.587 17.7868L125.408 12.4721L129.128 8.49235C129.796 7.77738 129.352 6.60623 128.378 6.51254ZM124.111 11.2649L123.475 11.9459L123.677 12.8547L124.596 16.999L120.739 15.2052L119.894 14.8122L119.336 3.12914L121.398 6.84365L121.85 7.65747L122.777 7.74745L127.014 8.15862L124.111 11.2649Z" fill="#FFAF3B"/>
</svg>
