<svg width="124" height="124" viewBox="0 0 124 124" fill="none" xmlns="http://www.w3.org/2000/svg">
<mask id="mask0_266_512" style="mask-type:luminance" maskUnits="userSpaceOnUse" x="0" y="-1" width="124" height="125">
<path d="M87.3842 -0.000163228L0 36.0629L36.063 123.447L123.447 87.384L87.3842 -0.000163228Z" fill="white"/>
</mask>
<g mask="url(#mask0_266_512)">
<path d="M107.382 48.7561C104.89 44.5489 99.9249 42.4849 95.1847 43.6854L94.0923 41.0377C91.0776 33.7325 83.0694 30.0764 76.2435 32.8935C69.6145 35.6294 66.4443 43.6872 69.1703 50.8592L69.2549 50.8244L69.1762 50.8738L81.0211 79.5745C84.8074 88.7499 81.0231 99.0314 72.5905 102.511C64.1581 105.992 54.2194 101.361 50.4371 92.1963L49.4111 89.7104C51.5229 88.8391 53.1486 86.3768 51.3761 82.0821L49.8645 78.4192C58.2252 72.1719 61.586 61.3916 57.8307 52.2921L56.5775 49.2556L53.6648 50.4576L45.7811 31.5282C44.312 28.0283 40.558 26.0715 36.8475 26.8719C35.1611 24.8976 32.1935 24.6642 30.2191 26.3508C28.2449 28.0371 28.0115 31.0048 29.6981 32.9791C31.3845 34.9534 34.3521 35.1868 36.3264 33.5001C37.3836 32.5971 37.9867 31.2725 37.974 29.8822C40.0588 29.6431 42.0519 30.807 42.8676 32.7407L50.752 51.6597L47.8393 52.8618L49.1099 55.9406C51.0844 61.0543 49.5049 66.8583 45.2113 70.266C42.9466 72.1687 40.1485 73.3234 37.2013 73.572C31.7575 74.1769 26.5524 71.174 24.3515 66.1583L23.0809 63.0795L18.7117 64.8826L10.8982 45.9497C10.0942 43.9778 10.7082 41.7114 12.398 40.4151C14.2156 42.3058 17.2216 42.3649 19.1123 40.5473C21.003 38.7296 21.062 35.7234 19.2444 33.8329C17.4269 31.9424 14.4206 31.8833 12.5301 33.7008C11.5057 34.6858 10.9761 36.0777 11.087 37.4945C7.84272 39.5314 6.53376 43.6067 7.98549 47.1518L15.799 66.0848L12.8862 67.2867L14.1363 70.3159C17.8959 79.4256 27.8869 84.6992 38.2135 83.2276L39.7251 86.8899C41.4976 91.1853 44.3866 91.7843 46.4984 90.9123L47.5244 93.3982C51.972 104.176 63.7538 109.567 73.7924 105.424C83.8312 101.281 88.3772 89.1396 83.9335 78.3726L72.1181 49.7417C69.9825 44.1546 72.3766 37.9035 77.4474 35.8106C82.6673 33.6565 88.8279 36.541 91.1813 42.2442L92.2723 44.8875C87.0315 47.9915 85.2995 54.7564 88.4034 59.9971C91.508 65.2378 98.2722 66.9698 103.513 63.8657C108.754 60.7616 110.486 53.9966 107.382 48.7561ZM33.8535 31.3629C33.0492 31.6948 32.128 31.3118 31.7961 30.5075C31.4642 29.7033 31.8472 28.782 32.6514 28.4501C33.4557 28.1181 34.3769 28.5012 34.7089 29.3055C35.0408 30.1098 34.6578 31.031 33.8535 31.3629ZM15.1749 35.6626C15.9792 35.3306 16.9004 35.7136 17.2323 36.5179C17.5643 37.3222 17.1813 38.2434 16.377 38.5754C15.5727 38.9073 14.6515 38.5243 14.3196 37.72C13.9877 36.9157 14.3706 35.9945 15.1749 35.6626ZM17.0491 69.1139L17.0011 68.9971L21.3702 67.1942L21.4387 67.3602C24.1603 73.6455 30.6514 77.4318 37.4619 76.7061C41.0613 76.4004 44.4784 74.9905 47.2458 72.6686C52.5895 68.3804 54.5246 61.1166 52.0227 54.7385L51.9541 54.5725L54.8669 53.3704L54.915 53.4869C58.2586 61.5888 54.9557 71.2948 47.0572 76.573C45.2025 77.8116 43.1734 78.7682 41.0372 79.4099C40.3347 79.6231 39.6214 79.7989 38.9003 79.9354C29.5797 81.7672 20.3927 77.2159 17.0491 69.1139ZM45.2963 88C43.9856 88.5406 42.9985 86.5618 42.6378 85.6879L41.3624 82.5978C41.485 82.5643 41.6068 82.5204 41.7296 82.4836C41.8818 82.4397 42.0323 82.3911 42.1833 82.3439C42.8974 82.1208 43.6089 81.8748 44.3101 81.5874L44.3829 81.5572C45.082 81.2686 45.7577 80.9405 46.417 80.5967C46.5572 80.5239 46.7068 80.4484 46.8502 80.3704C46.9598 80.31 47.0774 80.2562 47.1865 80.1939L48.4619 83.2847C48.8226 84.1586 49.5183 86.2574 48.2076 86.798L45.2963 88ZM100.893 61.6464C96.8715 63.3061 92.2658 61.3913 90.6059 57.3697C88.946 53.3481 90.8611 48.7424 94.8829 47.0827C98.904 45.423 103.51 47.3378 105.17 51.3594C106.824 55.3811 104.91 59.9829 100.893 61.6464Z" fill="#99DDB4" fill-opacity="0.2"/>
<path d="M96.0842 49.9953C93.6712 50.9912 92.5224 53.7545 93.5183 56.1675C94.5142 58.5806 97.2777 59.7294 99.6907 58.7336C102.103 57.7378 103.252 54.9744 102.257 52.5613C101.261 50.1483 98.4973 48.9994 96.0842 49.9953ZM98.4881 55.8208C97.6838 56.1527 96.7626 55.7698 96.4307 54.9655C96.0987 54.1612 96.4818 53.24 97.2862 52.9081C98.0906 52.5761 99.0117 52.9591 99.3437 53.7634C99.6757 54.5677 99.2925 55.4889 98.4881 55.8208Z" fill="#99DDB4" fill-opacity="0.2"/>
</g>
</svg>
