<svg width="160" height="160" viewBox="0 0 160 160" fill="none" xmlns="http://www.w3.org/2000/svg">
<mask id="mask0_197_943" style="mask-type:luminance" maskUnits="userSpaceOnUse" x="0" y="-1" width="160" height="161">
<path d="M112.754 -0.000221016L0 46.5327L46.5329 159.286L159.287 112.754L112.754 -0.000221016Z" fill="white"/>
</mask>
<g mask="url(#mask0_197_943)">
<path d="M138.557 62.9112C135.342 57.4826 128.935 54.8193 122.819 56.3684L121.41 52.952C117.52 43.5259 107.186 38.8084 98.3788 42.4434C89.8252 45.9735 85.7346 56.3707 89.2521 65.6249L89.3613 65.58L89.2597 65.6437L104.543 102.677C109.429 114.516 104.546 127.783 93.6652 132.273C82.7848 136.764 69.9606 130.789 65.0802 118.963L63.7564 115.755C66.4812 114.631 68.5789 111.454 66.2918 105.912L64.3413 101.186C75.1294 93.1252 79.4659 79.215 74.6204 67.4738L73.0034 63.5557L69.245 65.1067L59.0725 40.6816C57.1769 36.1656 52.333 33.6407 47.5452 34.6735C45.3692 32.126 41.5401 31.8249 38.9925 34.0011C36.4451 36.177 36.1439 40.0063 38.3202 42.5538C40.4962 45.1012 44.3253 45.4024 46.8729 43.2261C48.237 42.0609 49.0152 40.3517 48.9988 38.5578C51.6889 38.2492 54.2606 39.7511 55.3131 42.2462L65.4866 66.6578L61.7282 68.2089L63.3677 72.1815C65.9154 78.7799 63.8773 86.2689 58.3373 90.6659C55.415 93.121 51.8046 94.6109 48.0017 94.9317C40.9775 95.7123 34.2613 91.8376 31.4213 85.3656L29.7819 81.393L24.1443 83.7196L14.0623 59.29C13.0249 56.7456 13.8172 53.8213 15.9975 52.1487C18.3428 54.5883 22.2216 54.6645 24.6611 52.3192C27.1007 49.9738 27.1768 46.0948 24.8316 43.6555C22.4864 41.2161 18.6073 41.1398 16.1679 43.4851C14.8462 44.756 14.1627 46.552 14.3059 48.3801C10.1197 51.0084 8.43073 56.2669 10.3039 60.8411L20.3859 85.2708L16.6275 86.8217L18.2405 90.7303C23.0916 102.485 35.9832 109.289 49.3078 107.391L51.2583 112.116C53.5453 117.659 57.2732 118.431 59.998 117.306L61.3218 120.514C67.0608 134.42 82.263 141.377 95.2161 136.031C108.169 130.685 114.035 115.019 108.301 101.126L93.0557 64.1829C90.3001 56.9737 93.3892 48.9078 99.9323 46.2073C106.668 43.4278 114.617 47.1497 117.653 54.5087L119.061 57.9194C112.299 61.9247 110.064 70.6535 114.069 77.4157C118.075 84.178 126.803 86.4128 133.565 82.4075C140.328 78.4022 142.563 69.6732 138.557 62.9112ZM43.682 40.4683C42.6442 40.8966 41.4556 40.4025 41.0273 39.3647C40.599 38.3269 41.0932 37.1382 42.131 36.7099C43.1688 36.2816 44.3574 36.7758 44.7857 37.8136C45.214 38.8514 44.7198 40.0401 43.682 40.4683ZM19.5806 46.0164C20.6184 45.588 21.8071 46.0822 22.2354 47.12C22.6636 48.1578 22.1695 49.3465 21.1317 49.7748C20.0939 50.203 18.9052 49.7089 18.477 48.6711C18.0487 47.6333 18.5428 46.4446 19.5806 46.0164ZM21.9989 89.1794L21.9369 89.0287L27.5745 86.7023L27.6629 86.9165C31.1746 95.0266 39.5502 99.9121 48.338 98.9758C52.9824 98.5813 57.3915 96.762 60.9624 93.766C67.8575 88.2329 70.3545 78.8602 67.1261 70.6305L67.0376 70.4162L70.796 68.8651L70.8581 69.0155C75.1724 79.4695 70.9107 91.9933 60.7191 98.8039C58.3259 100.402 55.7077 101.637 52.9513 102.464C52.0449 102.74 51.1245 102.966 50.194 103.143C38.1675 105.506 26.3132 99.6335 21.9989 89.1794ZM58.4469 113.548C56.7557 114.246 55.482 111.693 55.0167 110.565L53.3709 106.578C53.5291 106.535 53.6863 106.478 53.8447 106.431C54.0412 106.374 54.2353 106.311 54.4302 106.25C55.3515 105.962 56.2696 105.645 57.1744 105.274L57.2683 105.235C58.1703 104.863 59.0423 104.439 59.893 103.996C60.0739 103.902 60.2669 103.805 60.4519 103.704C60.5934 103.626 60.7452 103.557 60.8859 103.476L62.5316 107.464C62.9969 108.592 63.8947 111.3 62.2034 111.998L58.4469 113.548ZM130.185 79.5439C124.996 81.6854 119.053 79.2147 116.911 74.0256C114.769 68.8364 117.24 62.8935 122.43 60.7519C127.618 58.6104 133.561 61.0811 135.703 66.2702C137.837 71.4596 135.368 77.3974 130.185 79.5439Z" fill="white" fill-opacity="0.4"/>
<path d="M123.98 64.5102C120.866 65.7952 119.384 69.3608 120.669 72.4744C121.954 75.588 125.52 77.0704 128.633 75.7854C131.746 74.5005 133.228 70.9348 131.944 67.8212C130.659 64.7076 127.093 63.2252 123.98 64.5102ZM127.081 72.027C126.044 72.4553 124.855 71.9611 124.427 70.9233C123.998 69.8855 124.493 68.6969 125.531 68.2686C126.568 67.8403 127.757 68.3345 128.185 69.3723C128.614 70.4101 128.119 71.5987 127.081 72.027Z" fill="white" fill-opacity="0.4"/>
</g>
</svg>
