<svg width="110" height="172" viewBox="0 0 110 172" fill="none" xmlns="http://www.w3.org/2000/svg">
<g clip-path="url(#clip0_266_390)">
<g opacity="0.3">
<path d="M88.7616 89.7016C90.6858 91.9002 91.3629 94.9298 90.0958 97.7048C89.5863 98.5494 89.0767 99.3872 88.5671 100.232C85.1076 100.265 81.6548 100.299 78.1953 100.332C73.3814 98.0869 71.7791 90.3719 72.235 85.7268C73.5088 72.7969 88.1649 65.8595 99.3615 72.2272C118.208 82.9518 114.111 109.931 95.0907 117.438C85.1546 121.359 72.6842 122.157 63.5728 115.809C55.4067 110.119 51.1962 100.279 50.4386 90.6065C49.7279 81.4906 51.7795 70.8799 56.2447 62.823C63.4454 49.8128 78.8188 49.7994 91.544 52.9632C94.7957 53.7742 97.216 50.0876 93.2067 49.0889C81.1118 46.086 67.4279 45.5498 57.0426 53.5866C47.3479 61.0938 43.962 76.269 44.076 87.9722C44.3174 113.798 66.3485 128.726 90.7261 123.162C100.836 120.856 110.766 115.883 115.358 106.083C119.951 96.2905 118.436 84.098 111.47 75.8199C98.463 60.3564 66.8647 63.0577 65.8858 86.7992C65.45 97.3026 73.8776 106.908 84.7054 106.325C94.0515 105.822 101.038 95.513 94.1855 87.6908C92.5161 85.7938 86.5692 87.2014 88.7616 89.7016Z" fill="#99DDB4"/>
<path d="M48.6135 148.104C46.5016 154.854 44.383 161.604 42.2711 168.354C41.2788 171.524 47.4269 172.409 48.3119 169.587C50.4238 162.837 52.5424 156.087 54.6543 149.338C55.6399 146.167 49.4918 145.282 48.6135 148.104Z" fill="#99DDB4"/>
<path d="M85.4627 151.341C86.2002 157.776 87.7691 163.969 90.2631 169.955C91.3359 172.542 97.5174 171.705 96.3039 168.789C93.964 163.172 92.422 157.394 91.7315 151.341C91.3895 148.392 85.1342 148.479 85.4627 151.341Z" fill="#99DDB4"/>
<path d="M25.6779 110.695C18.0683 113.979 10.1838 116.48 2.07801 118.195C-1.99833 119.06 0.66335 122.197 3.74072 121.547C12.832 119.623 21.5747 116.835 30.1029 113.155C31.4773 112.565 30.9677 111.392 30.1029 110.695C28.9631 109.77 26.878 110.179 25.6779 110.695Z" fill="#99DDB4"/>
<path d="M4.14262 58.5805C11.4438 59.0095 18.7451 59.4385 26.0396 59.8675C29.9282 60.0954 29.8813 55.6781 26.0396 55.4502C18.7384 55.0212 11.4371 54.5923 4.14262 54.1633C0.247303 53.9354 0.300939 58.3526 4.14262 58.5805Z" fill="#99DDB4"/>
<path d="M37.0622 9.42115C40.2201 14.5957 43.3846 19.7703 46.5424 24.9516C47.9169 27.2038 54.0783 26.3056 52.5832 23.8524C49.4254 18.6778 46.2608 13.5031 43.103 8.32187C41.7219 6.0697 35.5604 6.9679 37.0622 9.42115Z" fill="#99DDB4"/>
<path d="M91.2208 22.0563C92.2131 15.7824 93.5942 9.60906 95.3307 3.50275C96.2224 0.379211 90.0744 -0.418443 89.2899 2.31633C87.4395 8.8114 86.0047 15.3869 84.9521 22.0563C84.5096 24.9117 90.7515 25.0391 91.2208 22.0563Z" fill="#99DDB4"/>
</g>
</g>
<defs>
<clipPath id="clip0_266_390">
<rect width="110" height="172" fill="white"/>
</clipPath>
</defs>
</svg>
