<svg width="22" height="22" viewBox="0 0 22 22" fill="none" xmlns="http://www.w3.org/2000/svg">
<g clip-path="url(#clip0_197_987)">
<path d="M20.1667 10.1567V11.0001C20.1656 12.9768 19.5255 14.9002 18.3419 16.4834C17.1584 18.0666 15.4947 19.2248 13.5992 19.7853C11.7035 20.3457 9.67756 20.2785 7.8233 19.5934C5.96908 18.9084 4.38597 17.6423 3.31009 15.9841C2.2342 14.3257 1.72318 12.3641 1.85325 10.3917C1.9833 8.41922 2.74748 6.54167 4.0318 5.03902C5.31611 3.53638 7.05176 2.48914 8.97988 2.0535C10.908 1.61788 12.9253 1.81718 14.7309 2.62171" stroke="#EEA676" stroke-width="2" stroke-linecap="round" stroke-linejoin="round"/>
<path d="M20.1667 3.66675L11 12.8426L8.25 10.0926" stroke="#EEA676" stroke-width="2" stroke-linecap="round" stroke-linejoin="round"/>
</g>
<defs>
<clipPath id="clip0_197_987">
<rect width="22" height="22" fill="white"/>
</clipPath>
</defs>
</svg>
